<svg version="1.1" id="Layer_1" xmlns="http://www.w3.org/2000/svg" xmlns:xlink="http://www.w3.org/1999/xlink" x="0px" y="0px"
	 width="100%" viewBox="0 0 512 512" enable-background="new 0 0 512 512" xml:space="preserve">
<path fill="#000000" opacity="1.000000" stroke="none" 
	d="
M1.000000,377.000000 
	C1.000000,251.709290 1.000000,126.418587 1.000000,1.063940 
	C171.565979,1.063940 342.131989,1.063940 513.000000,1.063940 
	C513.000000,126.356499 513.000000,251.713242 512.632324,377.673492 
	C509.606567,375.293915 506.227417,374.926788 502.404999,374.933411 
	C446.931183,375.029724 391.457092,374.998077 336.066650,374.664215 
	C350.279694,358.269958 359.601624,339.425018 367.857971,320.190247 
	C376.182312,328.339539 385.803253,333.191406 397.428833,334.922058 
	C402.741333,335.335327 407.642853,336.060211 412.521057,335.927673 
	C428.384705,335.496643 441.900146,329.043304 452.586609,317.691071 
	C466.732574,302.663788 471.985657,284.456848 467.925049,264.134247 
	C463.488861,241.931839 450.535431,226.653824 428.871704,218.555374 
	C421.032196,217.134277 413.391357,215.404831 405.711212,215.207916 
	C400.221283,215.067154 394.678619,216.982101 389.086304,217.528412 
	C389.337036,213.676712 389.485535,210.248413 390.022217,206.882004 
	C391.071472,200.299728 388.112946,192.199417 382.557129,189.259933 
	C379.727173,187.762650 376.144501,187.154907 372.884796,187.095642 
	C358.943970,186.842117 344.996704,186.942657 331.028442,186.486542 
	C331.708801,172.137268 317.087952,158.304092 303.562805,159.088440 
	C301.129578,158.996811 299.121033,158.978973 297.061340,158.541931 
	C295.859467,147.515274 291.718658,138.403564 281.494293,134.145645 
	C274.180237,131.099716 266.105774,129.907379 258.413513,127.735954 
	C244.643921,123.848991 234.650253,115.164558 227.506607,102.981796 
	C225.473495,99.514565 223.132141,96.413956 218.767166,96.022934 
	C210.859665,95.314560 206.113953,100.144096 205.580658,109.091278 
	C205.417542,111.700729 205.541794,114.119980 205.851196,116.515312 
	C206.864151,124.357300 206.427628,128.716293 198.528778,132.125397 
	C191.598236,135.116592 186.246841,139.913330 183.489334,147.068390 
	C182.003662,150.923370 181.073334,154.992355 179.437820,158.980804 
	C162.474503,157.249283 150.536911,167.325455 147.083710,180.381195 
	C146.652527,182.818741 146.297409,184.862762 145.478989,186.949524 
	C131.204666,186.994812 117.393478,187.041763 103.582695,186.986053 
	C92.162201,186.940002 86.495316,193.710434 87.015686,203.374176 
	C87.253380,207.788437 87.563583,212.203842 88.018555,216.600372 
	C89.292587,228.911896 89.958023,241.340973 92.160713,253.488464 
	C95.139847,269.917847 98.749771,286.286224 103.156418,302.388641 
	C107.692848,318.965302 114.358162,334.857697 123.301041,349.616486 
	C128.547699,358.275299 134.426392,366.551117 139.550842,374.999634 
	C101.487732,375.000061 63.894295,374.921478 26.301664,375.060333 
	C17.848509,375.091583 9.219129,373.617249 1.000000,377.000000 
z"/>
<path fill="#000000" opacity="1.000000" stroke="none" 
	d="
M513.000000,415.000000 
	C513.000000,447.646454 513.000000,480.292938 513.000000,512.939087 
	C342.333313,512.938721 171.666656,512.938721 1.000000,512.938721 
	C1.000000,480.564117 1.000000,448.250702 1.365964,415.329956 
	C5.237240,415.815002 8.741619,417.859680 12.247993,417.863129 
	C173.177917,418.020691 334.108002,417.998718 495.038086,418.004700 
	C501.198669,418.004944 507.480499,418.800934 513.000000,415.000000 
z"/>
<path fill="#596C76" opacity="1.000000" stroke="none" 
	d="
M513.000000,414.531342 
	C507.480499,418.800934 501.198669,418.004944 495.038086,418.004700 
	C334.108002,417.998718 173.177917,418.020691 12.247993,417.863129 
	C8.741619,417.859680 5.237240,415.815002 1.365964,414.861267 
	C1.000000,402.645782 1.000000,390.291534 1.000000,377.468658 
	C9.219129,373.617249 17.848509,375.091583 26.301664,375.060333 
	C63.894295,374.921478 101.487732,375.000061 140.018280,375.002991 
	C152.228882,374.987885 163.502075,374.969788 175.259064,374.990417 
	C217.816788,375.003845 259.890747,374.978607 302.432495,375.012390 
	C313.927856,375.046661 324.955475,375.021851 335.983093,374.997009 
	C391.457092,374.998077 446.931183,375.029724 502.404999,374.933411 
	C506.227417,374.926788 509.606567,375.293915 512.632324,378.138489 
	C513.000000,390.020905 513.000000,402.041779 513.000000,414.531342 
z"/>
<path fill="#D8ECFE" opacity="1.000000" stroke="none" 
	d="
M174.775284,374.951721 
	C163.502075,374.969788 152.228882,374.987885 140.488235,375.002563 
	C134.426392,366.551117 128.547699,358.275299 123.301041,349.616486 
	C114.358162,334.857697 107.692848,318.965302 103.156418,302.388641 
	C98.749771,286.286224 95.139847,269.917847 92.160713,253.488464 
	C89.958023,241.340973 89.292587,228.911896 88.018555,216.600372 
	C87.563583,212.203842 87.253380,207.788437 87.015686,203.374176 
	C86.495316,193.710434 92.162201,186.940002 103.582695,186.986053 
	C117.393478,187.041763 131.204666,186.994812 145.778992,187.248032 
	C147.847305,187.668884 149.152267,187.977890 150.457352,187.978424 
	C209.099411,188.002350 267.741486,188.007507 326.383545,187.953751 
	C327.939911,187.952332 329.495728,187.275787 331.051788,186.914062 
	C344.996704,186.942657 358.943970,186.842117 372.884796,187.095642 
	C376.144501,187.154907 379.727173,187.762650 382.557129,189.259933 
	C388.112946,192.199417 391.071472,200.299728 390.022217,206.882004 
	C389.485535,210.248413 389.337036,213.676712 388.913086,217.906067 
	C387.876221,226.760071 386.898193,234.780548 386.019043,242.811829 
	C385.542389,247.166260 385.234070,251.539108 384.805481,256.317719 
	C382.780762,266.095673 380.800385,275.459595 378.567596,285.090088 
	C374.772156,296.858978 371.229095,308.361267 367.686066,319.863586 
	C359.601624,339.425018 350.279694,358.269958 336.066650,374.664246 
	C324.955475,375.021851 313.927856,375.046661 302.546234,374.696228 
	C316.417114,355.788971 328.173798,335.717804 336.520264,313.980713 
	C343.255188,296.440674 348.149933,278.194031 354.026398,259.892609 
	C356.132538,247.016602 358.179993,234.524002 359.958588,221.993240 
	C360.617798,217.349106 357.579437,215.337860 353.429565,215.071915 
	C349.634521,214.828705 345.810974,215.029221 341.531433,215.025955 
	C269.759979,215.013504 198.457092,215.009293 127.154213,215.005310 
	C126.487831,215.005264 125.819870,214.979111 125.155327,215.014938 
	C119.859444,215.300446 116.351089,218.517792 117.129105,223.675674 
	C118.978783,235.938171 121.429062,248.110092 123.666718,260.772400 
	C131.626617,296.636536 144.775482,329.879944 164.906586,360.590118 
	C168.256302,365.596191 171.515793,370.273956 174.775284,374.951721 
z"/>
<path fill="#8AC9FE" opacity="1.000000" stroke="none" 
	d="
M429.053589,218.902710 
	C450.535431,226.653824 463.488861,241.931839 467.925049,264.134247 
	C471.985657,284.456848 466.732574,302.663788 452.586609,317.691071 
	C441.900146,329.043304 428.384705,335.496643 412.521057,335.927673 
	C407.642853,336.060211 402.741333,335.335327 397.584900,334.619049 
	C401.212372,325.211151 405.105469,316.187225 409.412964,307.090698 
	C427.386963,304.389404 436.190918,296.262695 439.597595,279.396179 
	C441.570709,269.627319 437.336731,257.939606 425.094238,248.731934 
	C426.522369,238.541550 427.787964,228.722122 429.053589,218.902710 
z"/>
<path fill="#EFE2DD" opacity="1.000000" stroke="none" 
	d="
M147.159790,179.987640 
	C150.536911,167.325455 162.474503,157.249283 179.913177,158.990631 
	C214.227158,158.988022 247.611130,158.991577 281.462860,158.997208 
	C286.991241,158.986572 292.051880,158.973862 297.112518,158.961136 
	C299.121033,158.978973 301.129578,158.996811 303.622528,159.430328 
	C305.862274,164.115601 307.972870,168.279083 309.287231,172.680359 
	C311.125336,178.835251 310.029327,180.001495 303.555267,180.001663 
	C251.423447,180.003082 199.291611,179.993713 147.159790,179.987640 
z"/>
<path fill="#F9F3F1" opacity="1.000000" stroke="none" 
	d="
M280.995117,158.995117 
	C247.611130,158.991577 214.227158,158.988022 180.367813,158.974625 
	C181.073334,154.992355 182.003662,150.923370 183.489334,147.068390 
	C186.246841,139.913330 191.598236,135.116592 198.528778,132.125397 
	C206.427628,128.716293 206.864151,124.357300 205.851196,116.515312 
	C205.541794,114.119980 205.417542,111.700729 205.819153,109.360443 
	C210.964401,110.337723 213.744995,113.050247 216.190506,117.049980 
	C224.427124,130.521240 235.791138,139.737137 252.039642,142.056717 
	C257.254913,142.801239 262.433441,144.305099 267.413483,146.069260 
	C273.732239,148.307617 278.566467,152.482864 280.995117,158.995117 
z"/>
<path fill="#E2D4CF" opacity="1.000000" stroke="none" 
	d="
M147.083710,180.381195 
	C199.291611,179.993713 251.423447,180.003082 303.555267,180.001663 
	C310.029327,180.001495 311.125336,178.835251 309.287231,172.680359 
	C307.972870,168.279083 305.862274,164.115601 304.047241,159.504120 
	C317.087952,158.304092 331.708801,172.137268 331.028442,186.486557 
	C329.495728,187.275787 327.939911,187.952332 326.383545,187.953751 
	C267.741486,188.007507 209.099411,188.002350 150.457352,187.978424 
	C149.152267,187.977890 147.847305,187.668884 146.242294,187.205261 
	C146.297409,184.862762 146.652527,182.818741 147.083710,180.381195 
z"/>
<path fill="#F3EAE6" opacity="1.000000" stroke="none" 
	d="
M281.462860,158.997208 
	C278.566467,152.482864 273.732239,148.307617 267.413483,146.069260 
	C262.433441,144.305099 257.254913,142.801239 252.039642,142.056717 
	C235.791138,139.737137 224.427124,130.521240 216.190506,117.049980 
	C213.744995,113.050247 210.964401,110.337723 206.191345,109.159294 
	C206.113953,100.144096 210.859665,95.314560 218.767166,96.022934 
	C223.132141,96.413956 225.473495,99.514565 227.506607,102.981796 
	C234.650253,115.164558 244.643921,123.848991 258.413513,127.735954 
	C266.105774,129.907379 274.180237,131.099716 281.494293,134.145645 
	C291.718658,138.403564 295.859467,147.515274 297.061340,158.541931 
	C292.051880,158.973862 286.991241,158.986572 281.462860,158.997208 
z"/>
<path fill="#62B8FF" opacity="1.000000" stroke="none" 
	d="
M428.871704,218.555374 
	C427.787964,228.722122 426.522369,238.541550 424.721588,248.683640 
	C422.771576,248.326050 421.397766,247.537598 419.935425,246.982376 
	C406.434784,241.856583 393.085144,246.038712 384.849792,255.903656 
	C385.234070,251.539108 385.542389,247.166260 386.019043,242.811829 
	C386.898193,234.780548 387.876221,226.760071 388.986267,218.357437 
	C394.678619,216.982101 400.221283,215.067154 405.711212,215.207916 
	C413.391357,215.404831 421.032196,217.134277 428.871704,218.555374 
z"/>
<path fill="#62B8FF" opacity="1.000000" stroke="none" 
	d="
M408.998535,307.163330 
	C405.105469,316.187225 401.212372,325.211151 397.163208,334.538025 
	C385.803253,333.191406 376.182312,328.339539 367.857971,320.190247 
	C371.229095,308.361267 374.772156,296.858978 378.706238,285.453186 
	C384.602264,298.927338 394.631866,306.045380 408.998535,307.163330 
z"/>
<path fill="#C86E37" opacity="1.000000" stroke="none" 
	d="
M353.861023,260.260864 
	C348.149933,278.194031 343.255188,296.440674 336.520264,313.980713 
	C328.173798,335.717804 316.417114,355.788971 302.078491,374.637146 
	C259.890747,374.978607 217.816788,375.003845 175.259064,374.990417 
	C171.515793,370.273956 168.256302,365.596191 165.206329,360.271301 
	C167.374359,359.416138 169.332672,359.029022 171.291428,359.026703 
	C203.274597,358.988983 235.259308,358.826355 267.240234,359.096924 
	C277.993103,359.187927 285.637726,354.605530 291.538757,346.122559 
	C309.072388,320.917328 321.599792,293.321136 330.856018,264.145386 
	C331.443176,262.294708 332.478912,260.586334 333.712830,258.850403 
	C340.700134,259.346313 347.280609,259.803589 353.861023,260.260864 
z"/>
<path fill="#D77F4A" opacity="1.000000" stroke="none" 
	d="
M333.305939,258.811768 
	C332.478912,260.586334 331.443176,262.294708 330.856018,264.145386 
	C321.599792,293.321136 309.072388,320.917328 291.538757,346.122559 
	C285.637726,354.605530 277.993103,359.187927 267.240234,359.096924 
	C235.259308,358.826355 203.274597,358.988983 171.291428,359.026703 
	C169.332672,359.029022 167.374359,359.416138 165.116089,359.942993 
	C144.775482,329.879944 131.626617,296.636536 124.149002,260.868835 
	C136.977844,261.728180 148.160782,258.295746 159.023392,252.523026 
	C175.958038,243.523453 193.107422,243.956375 210.210251,252.550552 
	C215.089828,255.002533 220.079346,257.554443 225.316040,258.916077 
	C239.772003,262.674866 253.544037,260.577667 266.737152,253.312592 
	C284.536285,243.511108 302.563080,243.577774 320.618073,253.068512 
	C324.532593,255.126221 328.850464,256.416656 333.061554,258.249084 
	C333.140564,258.437714 333.305939,258.811768 333.305939,258.811768 
z"/>
<path fill="#F9F3F0" opacity="1.000000" stroke="none" 
	d="
M332.982544,258.060486 
	C328.850464,256.416656 324.532593,255.126221 320.618073,253.068512 
	C302.563080,243.577774 284.536285,243.511108 266.737152,253.312592 
	C253.544037,260.577667 239.772003,262.674866 225.316040,258.916077 
	C220.079346,257.554443 215.089828,255.002533 210.210251,252.550552 
	C193.107422,243.956375 175.958038,243.523453 159.023392,252.523026 
	C148.160782,258.295746 136.977844,261.728180 124.118958,260.415039 
	C121.429062,248.110092 118.978783,235.938171 117.129105,223.675674 
	C116.351089,218.517792 119.859444,215.300446 125.155327,215.014938 
	C125.819870,214.979111 126.487831,215.005264 127.154213,215.005310 
	C198.457092,215.009293 269.759979,215.013504 341.531189,215.449432 
	C341.480713,219.308304 341.161804,222.780243 340.406067,226.154327 
	C338.019562,236.809418 335.469421,247.427872 332.982544,258.060486 
z"/>
<path fill="#000000" opacity="1.000000" stroke="none" 
	d="
M409.412964,307.090698 
	C394.631866,306.045380 384.602264,298.927338 378.958679,285.186584 
	C380.800385,275.459595 382.780762,266.095673 384.805481,256.317719 
	C393.085144,246.038712 406.434784,241.856583 419.935425,246.982376 
	C421.397766,247.537598 422.771576,248.326050 424.559082,249.054626 
	C437.336731,257.939606 441.570709,269.627319 439.597595,279.396179 
	C436.190918,296.262695 427.386963,304.389404 409.412964,307.090698 
z"/>
<path fill="#F3EAE6" opacity="1.000000" stroke="none" 
	d="
M333.061554,258.249084 
	C335.469421,247.427872 338.019562,236.809418 340.406067,226.154327 
	C341.161804,222.780243 341.480713,219.308304 341.999756,215.457672 
	C345.810974,215.029221 349.634521,214.828705 353.429565,215.071915 
	C357.579437,215.337860 360.617798,217.349106 359.958588,221.993240 
	C358.179993,234.524002 356.132538,247.016602 354.026428,259.892609 
	C347.280609,259.803589 340.700134,259.346313 333.712830,258.850403 
	C333.305939,258.811768 333.140564,258.437714 333.061554,258.249084 
z"/>
</svg>